<?xml version="1.0" encoding="UTF-8" standalone="no"?><!DOCTYPE svg PUBLIC "-//W3C//DTD SVG 1.1//EN" "http://www.w3.org/Graphics/SVG/1.1/DTD/svg11.dtd"><svg width="100%" height="100%" viewBox="0 0 456 456" version="1.1" xmlns="http://www.w3.org/2000/svg" xmlns:xlink="http://www.w3.org/1999/xlink" xml:space="preserve" xmlns:serif="http://www.serif.com/" style="fill-rule:evenodd;clip-rule:evenodd;stroke-linecap:round;stroke-linejoin:round;stroke-miterlimit:10;"><g id="FILL"><path d="M93.355,145.752l8.77,1.9c10.869,-57.916 63.233,-101.88 126.109,-101.88c62.864,0 115.219,43.947 126.103,101.845l8.447,-1.865l0,222.936l-134.715,79.68l-134.714,-79.68l0,-222.936Z" style="fill:#f2f2f2;"/><path d="M228.069,175.463l0.026,-129.691c62.864,0 115.219,43.947 126.103,101.845l8.447,-1.865l0,222.936l-134.714,79.68l-0.026,-272.88l0.052,0l0.112,-0.025Z" style="fill:#ccc;"/></g><g id="SHAPE"><path d="M227.957,175.488l134.688,-29.736l0,222.936l-134.714,79.68l-134.715,-79.68l0,-222.936l134.689,29.736" style="fill:none;stroke:#000;stroke-width:15px;"/><path d="M354.205,147.652c-10.87,-57.916 -63.234,-101.88 -126.11,-101.88c-62.876,0 -115.239,43.964 -126.109,101.88l126.083,27.836l0.052,0l126.084,-27.836Z" style="fill:none;stroke:#000;stroke-width:15px;"/><path d="M325.256,190.718c1.148,0.274 1.474,0.271 2.521,0.845c1.567,0.859 2.799,2.285 3.422,3.959c0.417,1.12 0.367,1.442 0.472,2.617l0,15.154c-0.036,0.423 -0.037,0.85 -0.108,1.268c-0.288,1.678 -1.16,3.238 -2.438,4.363c-0.854,0.751 -1.154,0.822 -2.159,1.329l-96.24,38.654c-0.364,0.115 -0.72,0.258 -1.092,0.345c-1.117,0.26 -2.29,0.26 -3.407,0c-0.372,-0.087 -0.728,-0.23 -1.092,-0.345l-96.24,-38.654c-0.378,-0.191 -0.775,-0.35 -1.136,-0.573c-1.45,-0.892 -2.573,-2.283 -3.14,-3.888c-0.379,-1.073 -0.333,-1.377 -0.428,-2.499l0,-15.154c0.105,-1.175 0.054,-1.497 0.471,-2.617c0.934,-2.51 3.288,-4.416 5.943,-4.804c1.182,-0.173 1.486,-0.056 2.657,0.088l94.669,20.286l94.668,-20.286l1.325,-0.163c0.444,0.025 0.888,0.05 1.332,0.075Z" style="fill-rule:nonzero;"/><g><g><circle cx="247.058" cy="293.476" r="7.795"/><circle cx="247.058" cy="319.813" r="7.795"/><circle cx="247.058" cy="346.149" r="7.795"/><circle cx="247.058" cy="372.486" r="7.795"/><circle cx="247.058" cy="398.822" r="7.795"/><circle cx="269.657" cy="283.045" r="7.087"/><circle cx="269.657" cy="308.601" r="7.087"/><circle cx="269.657" cy="334.158" r="7.087"/><circle cx="269.657" cy="359.714" r="7.087"/><circle cx="269.657" cy="385.271" r="7.087"/><circle cx="292.255" cy="272.373" r="6.378"/><circle cx="292.255" cy="297.21" r="6.378"/><circle cx="292.255" cy="322.046" r="6.378"/><circle cx="292.255" cy="346.883" r="6.378"/><circle cx="292.255" cy="371.719" r="6.378"/><circle cx="314.133" cy="261.942" r="5.669"/><circle cx="333.881" cy="252.614" r="4.961"/><circle cx="314.133" cy="285.998" r="5.669"/><circle cx="333.881" cy="276.07" r="4.961"/><circle cx="314.133" cy="310.055" r="5.669"/><circle cx="333.881" cy="299.527" r="4.961"/><circle cx="314.133" cy="334.111" r="5.669"/><circle cx="333.881" cy="322.983" r="4.961"/><circle cx="314.133" cy="358.168" r="5.669"/><circle cx="333.881" cy="346.44" r="4.961"/></g><g><circle cx="208.803" cy="293.476" r="7.795"/><circle cx="208.803" cy="319.813" r="7.795"/><circle cx="208.803" cy="346.149" r="7.795"/><circle cx="208.803" cy="372.486" r="7.795"/><circle cx="208.803" cy="398.822" r="7.795"/><circle cx="186.205" cy="283.045" r="7.087"/><circle cx="186.205" cy="308.601" r="7.087"/><circle cx="186.205" cy="334.158" r="7.087"/><circle cx="186.205" cy="359.714" r="7.087"/><circle cx="186.205" cy="385.271" r="7.087"/><circle cx="163.606" cy="272.373" r="6.378"/><circle cx="163.606" cy="297.21" r="6.378"/><circle cx="163.606" cy="322.046" r="6.378"/><circle cx="163.606" cy="346.883" r="6.378"/><circle cx="163.606" cy="371.719" r="6.378"/><circle cx="141.728" cy="261.942" r="5.669"/><circle cx="121.98" cy="252.614" r="4.961"/><circle cx="141.728" cy="285.998" r="5.669"/><circle cx="121.98" cy="276.07" r="4.961"/><circle cx="141.728" cy="310.055" r="5.669"/><circle cx="121.98" cy="299.527" r="4.961"/><circle cx="141.728" cy="334.111" r="5.669"/><circle cx="121.98" cy="322.983" r="4.961"/><circle cx="141.728" cy="358.168" r="5.669"/><circle cx="121.98" cy="346.44" r="4.961"/></g></g><path d="M227.931,7.681l27.563,6.037l-18.549,59.643l-18.029,0l-18.549,-59.643l27.564,-6.037" style="fill:#f2f2f2;"/><path d="M227.931,7.681l27.563,6.037l-18.549,59.643l-9.014,0l0,-65.68" style="fill:#ccc;"/><path d="M227.931,7.681l27.563,6.037l-18.549,59.643l-18.029,0l-18.549,-59.643l27.564,-6.037" style="fill:none;stroke:#000;stroke-width:15px;stroke-miterlimit:1.5;"/></g></svg>